<svg xmlns="http://www.w3.org/2000/svg" viewBox="0 0 180 150"><defs><linearGradient id="b" x1="0" y1="0" x2="1" y2="1"><stop stop-color="#bff0ff"/><stop offset=".5" stop-color="#369dff"/><stop offset="1" stop-color="#0755d7"/></linearGradient></defs><ellipse cx="90" cy="132" rx="65" ry="13" fill="#128cff" opacity=".18"/><path d="m34 113 56-31 56 31-56 31z" fill="#57b9ff" opacity=".32"/><path d="m47 108 43-24 43 24-43 25z" fill="url(#b)"/><path d="M90 18c17 12 32 15 42 17v31c0 25-14 42-42 55-28-13-42-30-42-55V35c10-2 25-5 42-17Z" fill="#dff7ff" stroke="#147cff" stroke-width="3"/><path d="M90 30c13 9 23 11 30 13v23c0 18-10 31-30 41-20-10-30-23-30-41V43c7-2 17-4 30-13Z" fill="url(#b)"/><path d="m74 68 11 11 23-28" fill="none" stroke="#fff" stroke-width="7" stroke-linecap="round" stroke-linejoin="round"/></svg>
